PathFileType	4	(x/y/z)	A01_STANDINGCAL_T0011.trc
DataRate	CameraRate	NumFrames	NumMarkers	Units	OrigDataRate	OrigDataStartFrame	OrigNumFrames
240	240	10	48	mm	240	751	1200
Frame#	Time	TOP_HEAD			R_AC			L_AC			R_ASIS			L_ASIS			R_PSIS			L_PSIS			SACRAL			L_IC			R_IC			L_GT			R_GT			R_LAT_KNEE			R_MED_KNEE			L_MED_KNEE			L_LAT_KNEE			R_TOE			L_TOE			R_1ST_MET			L_1ST_MET			L_5TH_MET			R_5TH_MET			R_LAT_ANK			R_MED_ANK			L_MED_ANK			L_LAT_ANK			L_HEEL_SUP			R_HEEL_SUP			L_HEEL_LAT			R_HEEL_LAT			L_HEEL_MED			R_HEEL_MED			R_LL_PROX_POST			R_LL_PROX_ANT			R_LL_DIST_ANT			R_LL_DIST_POST			R_THIGH_PROX_POST			R_THIGH_PROX_ANT			R_THIGH_DIST_ANT			R_THIGH_DIST_POST			L_PROS_PROX_ANT			L_PROS_PROX_POST			L_PROS_DIST_POST			L_PROS_DIST_ANT			L_THIGH_PROX_ANT			L_THIGH_PROX_POST			L_THIGH_DIST_POST			L_THIGH_DIST_ANT			
		X1	Y1	Z1	X2	Y2	Z2	X3	Y3	Z3	X4	Y4	Z4	X5	Y5	Z5	X6	Y6	Z6	X7	Y7	Z7	X8	Y8	Z8	X9	Y9	Z9	X10	Y10	Z10	X11	Y11	Z11	X12	Y12	Z12	X13	Y13	Z13	X14	Y14	Z14	X15	Y15	Z15	X16	Y16	Z16	X17	Y17	Z17	X18	Y18	Z18	X19	Y19	Z19	X20	Y20	Z20	X21	Y21	Z21	X22	Y22	Z22	X23	Y23	Z23	X24	Y24	Z24	X25	Y25	Z25	X26	Y26	Z26	X27	Y27	Z27	X28	Y28	Z28	X29	Y29	Z29	X30	Y30	Z30	X31	Y31	Z31	X32	Y32	Z32	X33	Y33	Z33	X34	Y34	Z34	X35	Y35	Z35	X36	Y36	Z36	X37	Y37	Z37	X38	Y38	Z38	X39	Y39	Z39	X40	Y40	Z40	X41	Y41	Z41	X42	Y42	Z42	X43	Y43	Z43	X44	Y44	Z44	X45	Y45	Z45	X46	Y46	Z46	X47	Y47	Z47	X48	Y48	Z48	

751	3.1276	584.18	1866.6	326.07	575.76	1593.5	492.42	593.13	1604.1	86.46	677.97	1094	488.66	709.67	1062.3	132.36	473.32	1100.3	341.97	491.66	1105.8	213.35	464.66	1075.5	273.19	667.68	1183.6	91.043	621.77	1196.2	499.22	645.35	972.21	84.309	604.38	986.14	517.82	547.53	581.21	469.88	594.39	568.57	345.48	604.56	558.44	305.22	592.06	576.12	147.56	774.76	72.701	452.95	776.8	85.541	172.61	697.98	57.629	395.4	695.9	57.145	225.29	670.08	50.754	95.103	651.46	45.966	523.66	526.38	110.95	476.03	565.44	117.44	378.77	565.21	126.58	208.7	540.06	123.02	141.34	453.78	73.323	173.22	448.39	69.418	408.29	466.1	45.602	142.69	452.11	45.438	443.18	472.29	44.798	206.21	462.85	43.401	381.88	515.68	399.6	500.64	451.57	404.5	466.28	471.74	323.55	468.41	523.56	324	491.46	547.33	862.7	494.64	615.96	876.39	513.99	613.21	784.87	508.47	547.7	773.14	489.54	637.29	492.92	156.84	583.37	493.67	143.3	576.97	430.79	146.88	629.4	437.4	159.25	687.19	822.34	127.03	620.61	834.26	103.37	622	759.17	118.72	683.34	749.16	139.66
752	3.1318	584.2	1866.6	326.05	575.78	1593.5	492.4	593.15	1604.1	86.443	677.96	1094	488.66	709.68	1062.3	132.35	473.31	1100.3	341.96	491.66	1105.8	213.34	464.65	1075.5	273.18	667.69	1183.6	91.035	621.76	1196.2	499.21	645.36	972.21	84.306	604.37	986.14	517.82	547.52	581.21	469.88	594.39	568.57	345.48	604.56	558.44	305.22	592.06	576.12	147.56	774.76	72.7	452.95	776.8	85.54	172.61	697.98	57.629	395.4	695.9	57.145	225.29	670.08	50.754	95.103	651.46	45.966	523.66	526.38	110.95	476.03	565.44	117.44	378.77	565.21	126.58	208.7	540.06	123.02	141.34	453.78	73.322	173.22	448.39	69.419	408.29	466.1	45.602	142.69	452.11	45.439	443.18	472.29	44.798	206.21	462.85	43.403	381.88	515.67	399.6	500.63	451.56	404.49	466.27	471.74	323.55	468.4	523.55	324	491.45	547.31	862.7	494.64	615.95	876.39	513.99	613.19	784.87	508.47	547.69	773.14	489.55	637.29	492.92	156.84	583.37	493.67	143.3	576.98	430.79	146.87	629.4	437.4	159.25	687.19	822.34	127.03	620.62	834.26	103.37	622	759.17	118.72	683.35	749.16	139.66
753	3.1359	584.22	1866.6	326.04	575.79	1593.5	492.38	593.17	1604.1	86.426	677.95	1094	488.65	709.68	1062.3	132.35	473.31	1100.3	341.95	491.66	1105.8	213.33	464.65	1075.5	273.17	667.7	1183.6	91.027	621.75	1196.2	499.2	645.36	972.21	84.302	604.37	986.15	517.81	547.5	581.21	469.87	594.39	568.57	345.48	604.57	558.44	305.22	592.07	576.12	147.56	774.76	72.7	452.95	776.8	85.54	172.61	697.98	57.628	395.4	695.9	57.145	225.29	670.08	50.753	95.103	651.46	45.966	523.66	526.38	110.95	476.03	565.44	117.44	378.77	565.21	126.58	208.7	540.06	123.02	141.34	453.78	73.322	173.22	448.39	69.42	408.29	466.1	45.602	142.69	452.11	45.44	443.18	472.29	44.799	206.21	462.84	43.406	381.88	515.66	399.61	500.62	451.56	404.49	466.26	471.73	323.55	468.39	523.54	324	491.45	547.3	862.7	494.63	615.94	876.39	513.98	613.18	784.87	508.47	547.68	773.13	489.55	637.3	492.92	156.84	583.37	493.67	143.3	576.98	430.79	146.87	629.41	437.4	159.24	687.2	822.34	127.03	620.62	834.26	103.36	622.01	759.17	118.72	683.35	749.16	139.66
754	3.1401	584.24	1866.6	326.03	575.81	1593.5	492.36	593.18	1604.1	86.41	677.94	1094	488.64	709.68	1062.3	132.34	473.3	1100.3	341.94	491.66	1105.8	213.32	464.65	1075.5	273.16	667.7	1183.6	91.018	621.74	1196.2	499.19	645.36	972.2	84.297	604.36	986.15	517.81	547.49	581.21	469.86	594.38	568.56	345.47	604.58	558.44	305.22	592.07	576.11	147.56	774.76	72.7	452.95	776.8	85.54	172.61	697.98	57.628	395.4	695.9	57.145	225.29	670.08	50.753	95.103	651.46	45.965	523.66	526.38	110.95	476.03	565.44	117.44	378.77	565.21	126.58	208.7	540.06	123.02	141.34	453.78	73.322	173.22	448.39	69.422	408.29	466.1	45.602	142.69	452.11	45.441	443.18	472.29	44.8	206.21	462.84	43.41	381.88	515.65	399.61	500.61	451.55	404.49	466.25	471.73	323.55	468.38	523.54	324	491.44	547.29	862.7	494.62	615.93	876.39	513.98	613.17	784.87	508.47	547.67	773.13	489.55	637.3	492.92	156.84	583.38	493.67	143.3	576.98	430.79	146.87	629.41	437.4	159.24	687.21	822.34	127.03	620.63	834.25	103.36	622.02	759.17	118.72	683.36	749.16	139.66
755	3.1443	584.26	1866.6	326.02	575.82	1593.5	492.34	593.2	1604.1	86.394	677.94	1094	488.63	709.68	1062.3	132.34	473.3	1100.3	341.93	491.66	1105.8	213.31	464.64	1075.5	273.15	667.71	1183.6	91.009	621.74	1196.2	499.17	645.37	972.2	84.292	604.35	986.16	517.8	547.48	581.21	469.85	594.37	568.56	345.47	604.59	558.44	305.22	592.08	576.11	147.55	774.76	72.699	452.96	776.79	85.54	172.61	697.98	57.628	395.4	695.9	57.145	225.29	670.08	50.753	95.103	651.46	45.965	523.66	526.38	110.95	476.02	565.44	117.43	378.77	565.21	126.58	208.7	540.06	123.02	141.34	453.78	73.322	173.22	448.39	69.424	408.29	466.1	45.602	142.69	452.11	45.442	443.18	472.29	44.8	206.21	462.84	43.414	381.87	515.64	399.61	500.6	451.55	404.49	466.24	471.72	323.55	468.37	523.53	324	491.43	547.28	862.7	494.62	615.92	876.39	513.98	613.16	784.87	508.47	547.65	773.13	489.55	637.31	492.92	156.83	583.38	493.67	143.29	576.99	430.79	146.87	629.41	437.4	159.24	687.21	822.34	127.02	620.63	834.25	103.36	622.02	759.16	118.71	683.37	749.15	139.66
756	3.1485	584.28	1866.6	326	575.84	1593.5	492.32	593.21	1604.1	86.378	677.93	1094	488.62	709.68	1062.3	132.33	473.29	1100.3	341.92	491.65	1105.8	213.3	464.64	1075.5	273.14	667.71	1183.6	90.998	621.73	1196.2	499.16	645.37	972.2	84.287	604.35	986.16	517.8	547.47	581.21	469.85	594.36	568.55	345.46	604.6	558.44	305.21	592.08	576.11	147.55	774.76	72.699	452.96	776.79	85.54	172.61	697.98	57.628	395.4	695.9	57.145	225.29	670.08	50.752	95.103	651.46	45.964	523.66	526.38	110.95	476.02	565.45	117.43	378.77	565.21	126.58	208.7	540.06	123.02	141.34	453.78	73.322	173.22	448.39	69.425	408.29	466.1	45.602	142.68	452.11	45.443	443.17	472.29	44.802	206.21	462.84	43.419	381.87	515.64	399.61	500.6	451.54	404.49	466.23	471.72	323.55	468.36	523.52	324	491.43	547.27	862.7	494.61	615.9	876.38	513.97	613.15	784.87	508.46	547.65	773.12	489.55	637.31	492.91	156.83	583.39	493.67	143.29	576.99	430.79	146.87	629.42	437.4	159.24	687.22	822.34	127.02	620.64	834.25	103.35	622.03	759.16	118.71	683.38	749.15	139.65
757	3.1526	584.3	1866.6	325.99	575.85	1593.5	492.3	593.23	1604.1	86.362	677.93	1094	488.61	709.69	1062.3	132.33	473.29	1100.3	341.91	491.65	1105.8	213.29	464.64	1075.5	273.13	667.71	1183.6	90.987	621.73	1196.2	499.15	645.37	972.2	84.281	604.35	986.16	517.79	547.46	581.21	469.84	594.36	568.55	345.46	604.61	558.44	305.21	592.09	576.11	147.55	774.76	72.699	452.96	776.79	85.54	172.61	697.98	57.629	395.4	695.9	57.145	225.29	670.08	50.752	95.104	651.46	45.964	523.66	526.38	110.95	476.02	565.45	117.43	378.77	565.21	126.58	208.7	540.06	123.02	141.34	453.78	73.321	173.22	448.39	69.427	408.28	466.1	45.603	142.68	452.11	45.444	443.17	472.29	44.803	206.21	462.84	43.425	381.86	515.63	399.62	500.59	451.53	404.49	466.22	471.72	323.55	468.35	523.52	324	491.42	547.26	862.7	494.6	615.89	876.38	513.97	613.14	784.87	508.46	547.64	773.12	489.55	637.32	492.91	156.83	583.39	493.67	143.29	577	430.79	146.86	629.42	437.4	159.24	687.22	822.34	127.01	620.65	834.25	103.35	622.04	759.16	118.71	683.38	749.15	139.65
758	3.1568	584.31	1866.6	325.98	575.87	1593.5	492.28	593.24	1604.1	86.346	677.92	1094	488.6	709.69	1062.3	132.32	473.29	1100.3	341.9	491.65	1105.8	213.28	464.64	1075.5	273.12	667.71	1183.6	90.975	621.72	1196.2	499.14	645.37	972.2	84.275	604.34	986.17	517.78	547.45	581.21	469.83	594.35	568.54	345.45	604.62	558.44	305.21	592.09	576.1	147.54	774.76	72.699	452.96	776.79	85.54	172.61	697.98	57.629	395.4	695.9	57.146	225.29	670.08	50.751	95.104	651.46	45.964	523.66	526.38	110.95	476.02	565.45	117.43	378.77	565.21	126.58	208.7	540.06	123.02	141.34	453.78	73.321	173.22	448.39	69.429	408.28	466.1	45.603	142.68	452.11	45.444	443.17	472.29	44.804	206.21	462.83	43.43	381.86	515.62	399.62	500.58	451.53	404.48	466.21	471.71	323.55	468.34	523.51	324	491.41	547.25	862.7	494.6	615.89	876.38	513.96	613.13	784.87	508.45	547.63	773.12	489.55	637.32	492.91	156.83	583.4	493.67	143.28	577	430.79	146.86	629.43	437.4	159.23	687.23	822.33	127.01	620.65	834.25	103.34	622.04	759.16	118.7	683.39	749.15	139.64
759	3.161	584.33	1866.6	325.97	575.88	1593.5	492.26	593.25	1604	86.331	677.92	1094	488.59	709.69	1062.3	132.31	473.29	1100.3	341.88	491.65	1105.8	213.27	464.64	1075.5	273.11	667.71	1183.6	90.962	621.72	1196.2	499.13	645.38	972.2	84.269	604.34	986.17	517.78	547.44	581.21	469.82	594.34	568.53	345.44	604.63	558.44	305.2	592.1	576.1	147.54	774.76	72.698	452.96	776.79	85.54	172.61	697.98	57.629	395.4	695.9	57.146	225.29	670.08	50.751	95.104	651.46	45.964	523.66	526.38	110.95	476.02	565.45	117.43	378.77	565.21	126.58	208.7	540.07	123.02	141.34	453.78	73.32	173.22	448.39	69.43	408.28	466.1	45.604	142.68	452.11	45.445	443.17	472.29	44.805	206.21	462.83	43.435	381.86	515.62	399.62	500.57	451.53	404.48	466.2	471.71	323.55	468.33	523.51	324.01	491.4	547.24	862.7	494.59	615.88	876.38	513.96	613.12	784.87	508.45	547.62	773.12	489.55	637.33	492.91	156.82	583.4	493.67	143.28	577.01	430.79	146.86	629.43	437.39	159.23	687.24	822.33	127	620.66	834.25	103.33	622.05	759.16	118.7	683.4	749.15	139.64
760	3.1651	584.35	1866.6	325.95	575.89	1593.5	492.24	593.27	1604	86.315	677.92	1094	488.58	709.69	1062.3	132.3	473.29	1100.3	341.87	491.65	1105.8	213.26	464.64	1075.5	273.1	667.71	1183.6	90.948	621.72	1196.2	499.11	645.38	972.2	84.262	604.34	986.17	517.77	547.43	581.21	469.81	594.33	568.53	345.43	604.63	558.44	305.2	592.11	576.1	147.54	774.76	72.698	452.96	776.79	85.54	172.61	697.98	57.629	395.4	695.9	57.147	225.29	670.08	50.75	95.104	651.46	45.963	523.66	526.38	110.95	476.02	565.45	117.43	378.77	565.21	126.59	208.7	540.07	123.02	141.34	453.78	73.319	173.22	448.39	69.432	408.28	466.1	45.604	142.68	452.11	45.445	443.17	472.29	44.807	206.22	462.83	43.44	381.85	515.61	399.63	500.56	451.52	404.48	466.19	471.71	323.55	468.32	523.5	324.01	491.39	547.24	862.7	494.58	615.87	876.38	513.95	613.12	784.87	508.44	547.62	773.11	489.55	637.33	492.91	156.82	583.41	493.67	143.28	577.01	430.79	146.85	629.44	437.39	159.23	687.25	822.33	126.99	620.67	834.25	103.33	622.06	759.15	118.69	683.41	749.15	139.63
